<?xml version="1.0" encoding="utf-8"?>
<!-- Generator: Adobe Illustrator 24.0.3, SVG Export Plug-In . SVG Version: 6.00 Build 0)  -->
<svg version="1.1" id="Layer_1" xmlns="http://www.w3.org/2000/svg" xmlns:xlink="http://www.w3.org/1999/xlink" x="0px" y="0px"
	 viewBox="0 0 329.59 153.58" style="enable-background:new 0 0 329.59 153.58;" xml:space="preserve">
<style type="text/css">
	.st0{fill:#DB0032;}
	.st1{fill:#FFFFFF;}
	.st2{fill:#FFFFFF;}
	.st3{fill:#FFFFFF;}
</style>
<g>
	<polygon class="st0" points="79.47,58.67 79.74,59.66 82.73,56.55 	"/>
	<polygon class="st0" points="70.66,51.54 70.69,51.51 71.73,48.8 68.98,51.45 	"/>
	<polygon class="st0" points="71.73,48.8 74.44,41.76 65.29,51.26 68.98,51.45 	"/>
	<path class="st0" d="M87.24,33.86c-1.04-0.73-2.11-1.42-3.2-2.07l-9.2,9.56l0.95,3.54L87.24,33.86z"/>
	<path class="st0" d="M21.06,97.2c0.04,0.09,0.09,0.18,0.13,0.27L64.87,55.4l-2-1.63L21.06,97.2z"/>
	<path class="st0" d="M31.86,109.38c0.07,0.05,0.14,0.1,0.21,0.14L77.58,65.7l-2.05-1.67L31.86,109.38z"/>
	<path class="st0" d="M82.73,56.55l-2.99,3.11l0.84,3.15L98.76,45.3c-0.73-1.03-1.51-2.03-2.32-2.99l-9.71,10.08l2.22,0.12
		L82.73,56.55z"/>
	<path class="st0" d="M81.85,69.16l-42.34,43.96c0.13,0.04,0.26,0.08,0.39,0.13l63.09-60.76c-0.56-1.16-1.15-2.3-1.8-3.41
		L82.18,68.82"/>
	<path class="st0" d="M35.48,111.47c0.09,0.05,0.18,0.09,0.28,0.14l45-43.33l-2.07-1.68L35.48,111.47z"/>
	<path class="st0" d="M101.01,48.77c-0.65-1.1-1.34-2.16-2.07-3.2L80.96,64.24l0.81,3.05L101.01,48.77z"/>
	<path class="st0" d="M83.73,31.61c-1.11-0.64-2.25-1.24-3.41-1.8L59.93,50.97l3.5,0.19L83.73,31.61z"/>
	<path class="st0" d="M19.34,93.13c0.04,0.12,0.08,0.24,0.13,0.37L61.7,52.82l-1.99-1.62L19.34,93.13z"/>
	<path class="st0" d="M21.52,67.46c-0.51,0.93-0.97,1.88-1.37,2.84l18.11-17.44c-1.73,0.65-3.4,1.47-5.01,2.43L21.52,67.46z"/>
	<path class="st0" d="M40.97,50.25l25.54-24.6c-1.42-0.2-2.87-0.34-4.33-0.41L37.84,50.52C38.88,50.39,39.92,50.31,40.97,50.25"/>
	<path class="st0" d="M24.87,54.48l30.19-29.08c-1.71,0.17-3.4,0.42-5.05,0.76L19.82,57.53C21.44,56.38,23.13,55.36,24.87,54.48"/>
	<path class="st0" d="M76.31,28.12l-58.16,60.4c0.03,0.17,0.06,0.35,0.1,0.52l61.69-59.41C78.75,29.08,77.54,28.58,76.31,28.12"/>
	<path class="st0" d="M107.6,71.67L82.05,98.21c-0.24,1.15-0.51,2.3-0.85,3.44l26.31-25.34c0.07-1.07,0.11-2.16,0.11-3.25
		C107.62,72.59,107.62,72.13,107.6,71.67"/>
	<path class="st0" d="M42.1,28.54L14.6,57.1c-0.28,0.79-0.54,1.59-0.77,2.39l34.1-32.84C45.93,27.16,43.99,27.79,42.1,28.54"/>
	<path class="st0" d="M17.97,78.03l28.08-27.04c-1.22,0.13-2.43,0.34-3.63,0.62L18.18,76.78C18.1,77.2,18.03,77.61,17.97,78.03"/>
	<path class="st0" d="M46.68,50.38L71.38,26.6c-1.34-0.33-2.7-0.61-4.08-0.83L43.76,50.22C44.74,50.24,45.71,50.29,46.68,50.38"/>
	<path class="st0" d="M48.83,50.8l-31.2,32.4c0,0.26,0.01,0.52,0.02,0.77l58.18-56.03c-1.26-0.45-2.54-0.85-3.84-1.19L48.96,50.67"
		/>
	<path class="st0" d="M76.5,111.8l30.13-29.01c0.34-1.65,0.6-3.34,0.76-5.05l-28.3,29.39C78.35,108.73,77.48,110.29,76.5,111.8"/>
	<path class="st0" d="M80.07,52.03L93.5,39.1c-0.89-0.89-1.82-1.74-2.78-2.55L77.29,50.5l0.38,1.4L80.07,52.03z"/>
	<path class="st0" d="M25.72,104.05c0.05,0.06,0.1,0.12,0.15,0.17l38.98-37.54l2.09-5.44L25.72,104.05z"/>
	<path class="st0" d="M23.2,100.82c0.05,0.07,0.1,0.14,0.14,0.21l44.7-43.05l-2.02-1.64L23.2,100.82z"/>
	<path class="st0" d="M90.5,36.36c-0.97-0.81-1.96-1.58-2.99-2.32L76.06,45.93l0.92,3.44L90.5,36.36z"/>
	<polygon class="st0" points="70.67,51.54 70.69,51.51 70.66,51.54 	"/>
	<path class="st0" d="M75.71,118.21l28.56-27.5c0.75-1.89,1.38-3.83,1.88-5.82l-32.84,34.1C74.12,118.74,74.92,118.48,75.71,118.21"
		/>
	<path class="st0" d="M67.72,66.29l-39.1,40.6c0.06,0.05,0.12,0.1,0.18,0.15L74.4,63.13l-0.8-0.65L67.72,66.29z"/>
	<path class="st0" d="M96.25,42.08c-0.81-0.96-1.67-1.88-2.55-2.78L81.38,52.1l4.23,0.23L96.25,42.08z"/>
	<path class="st0" d="M34.17,51.17L61.13,25.2c-0.46-0.01-0.92-0.02-1.38-0.02c-1.09,0-2.18,0.04-3.25,0.11L30.67,52.11
		C31.83,51.74,32.99,51.43,34.17,51.17"/>
	<path class="st0" d="M28.65,36.66l-6.45,6.69c-1.67,2.11-3.17,4.36-4.47,6.74l20.66-19.9C34.88,31.96,31.6,34.13,28.65,36.66"/>
	<path class="st0" d="M103.17,52.87l-59.12,61.39c0.18,0.03,0.37,0.06,0.55,0.09l60.08-57.86
		C104.23,55.27,103.72,54.06,103.17,52.87"/>
	<path class="st0" d="M89.45,110.6l6.69-6.44c2.53-2.96,4.71-6.23,6.46-9.75l-19.9,20.66C85.09,113.77,87.34,112.28,89.45,110.6"/>
	<path class="st0" d="M78.91,95.62l-15.35,15.94c1.25-0.6,2.46-1.28,3.63-2.05l8.42-8.11C76.93,99.56,78.03,97.62,78.91,95.62"/>
	<path class="st0" d="M82.62,94.65l24.94-24.02c-0.07-1.46-0.21-2.91-0.41-4.33l-24.3,25.23C82.82,92.57,82.73,93.61,82.62,94.65"/>
	<path class="st0" d="M81.55,81.17l-32.33,33.57c0.28,0,0.55,0,0.83,0l31.51-30.34C81.61,83.33,81.61,82.25,81.55,81.17"/>
	<path class="st0" d="M82.33,83.66l23.71-22.83c-0.34-1.3-0.74-2.59-1.19-3.84L81.78,80.94C82,81.84,82.18,82.74,82.33,83.66"/>
	<path class="st0" d="M81.27,87.32l-25.91,26.91c0.46-0.08,0.92-0.18,1.37-0.28l23.79-22.91C80.84,89.82,81.09,88.57,81.27,87.32"/>
	<path class="st0" d="M82.84,88.8l24.19-23.29c-0.22-1.38-0.5-2.74-0.83-4.08L82.63,85.9C82.74,86.87,82.81,87.83,82.84,88.8"/>
</g>
<g class="st1">
	<rect x="124.15" y="118.38" class="st1" width="193.46" height="0.47"/>
	<rect x="124.15" y="96.8" class="st1" width="193.46" height="0.47"/>
	<path d="M123.81,108.05v-0.02c0-2.3,1.68-4.4,4.23-4.4c1.39,0,2.28,0.41,3.13,1.12l-0.42,0.47c-0.67-0.58-1.46-1.02-2.75-1.02
		c-2.08,0-3.54,1.75-3.54,3.81v0.02c0,2.2,1.38,3.84,3.67,3.84c1.09,0,2.1-0.45,2.73-0.97v-2.45H128v-0.58h3.47v3.28
		c-0.77,0.68-1.97,1.28-3.36,1.28C125.41,112.43,123.81,110.45,123.81,108.05"/>
	<polygon points="138.41,103.77 144.5,103.77 144.5,104.35 139.04,104.35 139.04,107.7 143.95,107.7 143.95,108.28 139.04,108.28 
		139.04,111.7 144.56,111.7 144.56,112.29 138.41,112.29 	"/>
	<polygon points="151.23,103.77 151.83,103.77 157.74,111.18 157.74,103.77 158.35,103.77 158.35,112.29 157.87,112.29 
		151.84,104.72 151.84,112.29 151.23,112.29 	"/>
	<polygon points="165.52,103.77 171.61,103.77 171.61,104.35 166.16,104.35 166.16,107.7 171.06,107.7 171.06,108.28 166.16,108.28 
		166.16,111.7 171.67,111.7 171.67,112.29 165.52,112.29 	"/>
	<polygon points="178.34,103.77 178.98,103.77 178.98,111.7 184.01,111.7 184.01,112.29 178.34,112.29 	"/>
	<polygon points="198.84,103.77 199.44,103.77 202.87,108.81 206.31,103.77 206.91,103.77 206.91,112.29 206.28,112.29 
		206.28,104.89 202.89,109.79 202.84,109.79 199.45,104.89 199.45,112.29 198.84,112.29 	"/>
	<path d="M213.95,108.75v-4.98h0.64v4.92c0,2.01,1.09,3.16,2.9,3.16c1.74,0,2.85-1.05,2.85-3.1v-4.98h0.64v4.9
		c0,2.45-1.43,3.75-3.51,3.75C215.4,112.42,213.95,111.13,213.95,108.75 M216.04,102.07h0.84v0.97h-0.84V102.07z M218.03,102.07
		h0.84v0.97h-0.84V102.07z"/>
	<path d="M228.01,103.77h2.85c2.69,0,4.55,1.84,4.55,4.23v0.02c0,2.4-1.86,4.26-4.55,4.26h-2.85V103.77z M230.86,111.7
		c2.39,0,3.89-1.62,3.89-3.65v-0.02c0-2.02-1.5-3.67-3.89-3.67h-2.21v7.35H230.86z"/>
	<path d="M242.07,108.75v-4.98h0.64v4.92c0,2.01,1.09,3.16,2.9,3.16c1.74,0,2.85-1.05,2.85-3.1v-4.98h0.64v4.9
		c0,2.45-1.43,3.75-3.51,3.75C243.52,112.42,242.07,111.13,242.07,108.75 M244.16,102.07H245v0.97h-0.84V102.07z M246.15,102.07H247
		v0.97h-0.84V102.07z"/>
	<path d="M256.13,103.77h3.6c1.05,0,1.9,0.33,2.41,0.84c0.4,0.4,0.65,0.97,0.65,1.58v0.02c0,1.42-1.06,2.24-2.51,2.43l2.83,3.64
		h-0.81l-2.73-3.53h-0.02h-2.78v3.53h-0.64V103.77z M259.65,108.19c1.43,0,2.5-0.72,2.5-1.95v-0.02c0-1.14-0.9-1.86-2.46-1.86h-2.92
		v3.83H259.65z"/>
	<polygon points="269.6,103.77 270.23,103.77 270.23,111.7 275.26,111.7 275.26,112.29 269.6,112.29 	"/>
	<path d="M281.66,108.75v-4.98h0.64v4.92c0,2.01,1.09,3.16,2.9,3.16c1.74,0,2.85-1.05,2.85-3.1v-4.98h0.64v4.9
		c0,2.45-1.43,3.75-3.51,3.75C283.12,112.42,281.66,111.13,281.66,108.75 M283.75,102.07h0.84v0.97h-0.84V102.07z M285.75,102.07
		h0.84v0.97h-0.84V102.07z"/>
	<path d="M295.34,108.05v-0.02c0-2.3,1.68-4.4,4.23-4.4c1.39,0,2.28,0.41,3.13,1.12l-0.42,0.47c-0.67-0.58-1.46-1.02-2.75-1.02
		c-2.08,0-3.54,1.75-3.54,3.81v0.02c0,2.2,1.38,3.84,3.67,3.84c1.09,0,2.1-0.45,2.73-0.97v-2.45h-2.86v-0.58h3.47v3.28
		c-0.77,0.68-1.97,1.28-3.36,1.28C296.94,112.43,295.34,110.45,295.34,108.05 M297.61,101.25h0.48c0.15,0.55,0.51,0.89,1.15,0.89
		c0.64,0,1-0.34,1.15-0.89h0.48c-0.06,0.95-0.72,1.51-1.63,1.51C298.34,102.76,297.68,102.2,297.61,101.25"/>
	<path d="M309.8,108.75v-4.98h0.64v4.92c0,2.01,1.09,3.16,2.9,3.16c1.74,0,2.85-1.05,2.85-3.1v-4.98h0.64v4.9
		c0,2.45-1.43,3.75-3.51,3.75C311.26,112.42,309.8,111.13,309.8,108.75 M311.89,102.07h0.84v0.97h-0.84V102.07z M313.89,102.07h0.84
		v0.97h-0.84V102.07z"/>
	<rect x="246.08" y="25.21" class="st2" width="71.53" height="6.87"/>
	<polygon points="126.31,25.9 124,25.9 124,25.18 129.42,25.18 129.42,25.9 127.1,25.9 127.1,32.08 126.31,32.08 	"/>
	<rect x="129.42" y="31.05" width="0.91" height="1.03"/>
	<path d="M131.1,28.65v-0.02c0-1.95,1.46-3.57,3.49-3.57c1.25,0,2,0.44,2.69,1.09l-0.53,0.57c-0.58-0.55-1.23-0.95-2.17-0.95
		c-1.53,0-2.67,1.24-2.67,2.83v0.02c0,1.6,1.15,2.85,2.67,2.85c0.95,0,1.57-0.36,2.23-1l0.51,0.5c-0.72,0.73-1.51,1.21-2.76,1.21
		C132.56,32.2,131.1,30.63,131.1,28.65"/>
	<rect x="138.2" y="31.05" width="0.91" height="1.03"/>
	<path d="M143.28,23.47h0.93v0.95h-0.93V23.47z M143.35,25.18h0.78v6.9h-0.78V25.18z"/>
	<path d="M147.82,33.27l0.76-1.1c-1.74-0.23-2.99-1.7-2.99-3.52v-0.02c0-1.95,1.46-3.57,3.49-3.57c1.25,0,2,0.44,2.69,1.09
		l-0.53,0.57c-0.58-0.55-1.23-0.95-2.17-0.95c-1.53,0-2.67,1.24-2.67,2.83v0.02c0,1.6,1.15,2.85,2.67,2.85c0.95,0,1.57-0.36,2.23-1
		l0.51,0.5c-0.69,0.7-1.44,1.16-2.6,1.21l-0.65,1.41L147.82,33.27z"/>
	<path d="M152.91,23.47h0.93v0.95h-0.93V23.47z M152.98,25.18h0.78v6.9h-0.78V25.18z"/>
	<path d="M155.07,31.08l0.48-0.57c0.72,0.65,1.41,0.98,2.37,0.98c0.93,0,1.54-0.49,1.54-1.17v-0.02c0-0.64-0.35-1.01-1.79-1.31
		c-1.59-0.35-2.32-0.86-2.32-1.99v-0.02c0-1.08,0.96-1.88,2.27-1.88c1,0,1.73,0.29,2.42,0.85l-0.45,0.6
		c-0.64-0.52-1.28-0.75-1.99-0.75c-0.9,0-1.47,0.49-1.47,1.11v0.02c0,0.65,0.36,1.02,1.87,1.34c1.54,0.34,2.25,0.9,2.25,1.95v0.02
		c0,1.18-0.99,1.95-2.36,1.95C156.8,32.18,155.9,31.82,155.07,31.08 M156.95,33.27l0.89-1.29h0.6l-0.75,1.63L156.95,33.27z"/>
	<polygon points="161.58,25.18 162.36,25.18 162.36,31.36 166.24,31.36 166.24,32.08 161.58,32.08 	"/>
	<polygon points="167.43,25.18 172.41,25.18 172.41,25.89 168.2,25.89 168.2,28.25 171.97,28.25 171.97,28.96 168.2,28.96 
		168.2,31.37 172.46,31.37 172.46,32.08 167.43,32.08 	"/>
	<path d="M173.77,25.18h2.97c0.85,0,1.53,0.26,1.96,0.69c0.33,0.34,0.53,0.82,0.53,1.36v0.02c0,1.14-0.79,1.81-1.87,2.01l2.12,2.82
		h-0.96l-2-2.68h-0.02h-1.95v2.68h-0.78V25.18z M176.67,28.7c1.04,0,1.77-0.53,1.77-1.42v-0.02c0-0.85-0.65-1.36-1.76-1.36h-2.13
		v2.8H176.67z"/>
	<path d="M180.65,23.47h0.93v0.95h-0.93V23.47z M180.72,25.18h0.78v6.9h-0.78V25.18z"/>
	<path d="M185.96,25.18h2.94c0.79,0,1.41,0.23,1.8,0.61c0.29,0.3,0.44,0.66,0.44,1.1v0.02c0,0.9-0.55,1.36-1.09,1.6
		c0.82,0.25,1.48,0.72,1.48,1.67v0.02c0,1.18-1,1.88-2.5,1.88h-3.07V25.18z M188.77,28.26c0.94,0,1.59-0.42,1.59-1.23v-0.02
		c0-0.68-0.54-1.12-1.53-1.12h-2.1v2.37H188.77z M189.04,31.38c1.04,0,1.7-0.46,1.7-1.23v-0.02c0-0.75-0.63-1.18-1.83-1.18h-2.18
		v2.43H189.04z"/>
	<path d="M195.37,25.13h0.73l3.14,6.95h-0.84l-0.81-1.82h-3.76l-0.82,1.82h-0.8L195.37,25.13z M197.3,29.56l-1.57-3.52l-1.58,3.52
		H197.3z"/>
	<polygon points="200.35,25.18 201.13,25.18 201.13,29.3 205.1,25.18 206.1,25.18 203.14,28.2 206.23,32.08 205.25,32.08 
		202.6,28.74 201.13,30.23 201.13,32.08 200.35,32.08 	"/>
	<path d="M209.69,25.13h0.73l3.14,6.95h-0.84l-0.81-1.82h-3.75l-0.82,1.82h-0.8L209.69,25.13z M211.61,29.56l-1.57-3.52l-1.58,3.52
		H211.61z"/>
	<polygon points="214.67,25.18 215.4,25.18 219.75,30.71 219.75,25.18 220.5,25.18 220.5,32.08 219.88,32.08 215.43,26.42 
		215.43,32.08 214.67,32.08 	"/>
	<polygon points="222.2,25.18 222.98,25.18 222.98,31.36 226.86,31.36 226.86,32.08 222.2,32.08 	"/>
	<rect x="228.12" y="25.18" width="0.78" height="6.9"/>
	<path d="M230.36,28.65v-0.02c0-1.89,1.39-3.57,3.46-3.57c1.16,0,1.88,0.34,2.57,0.92l-0.5,0.59c-0.53-0.46-1.12-0.79-2.1-0.79
		c-1.53,0-2.62,1.29-2.62,2.83v0.02c0,1.65,1.05,2.87,2.73,2.87c0.79,0,1.52-0.31,1.99-0.69V29.1h-2.1v-0.7h2.85v2.75
		c-0.64,0.57-1.61,1.05-2.77,1.05C231.7,32.2,230.36,30.62,230.36,28.65 M232.09,23.12h0.55c0.12,0.41,0.4,0.68,0.91,0.68
		c0.5,0,0.79-0.27,0.91-0.68h0.55c-0.06,0.83-0.64,1.31-1.46,1.31C232.73,24.43,232.15,23.95,232.09,23.12"/>
	<rect x="238.2" y="25.18" width="0.78" height="6.9"/>
	<polygon points="124.51,39.24 131.78,39.24 143.35,54.35 143.35,39.24 151.07,39.24 151.07,67.84 144.24,67.84 132.23,52.15 
		132.23,67.84 124.51,67.84 	"/>
	<polygon points="186.55,39.24 209.04,39.24 209.04,46.18 194.34,46.18 194.34,51.05 207.64,51.05 207.64,57.62 194.34,57.62 
		194.34,67.84 186.55,67.84 	"/>
	<path d="M212.24,55.29V39.24h7.91v15.89c0,4.13,2.05,6.09,5.18,6.09c3.13,0,5.18-1.88,5.18-5.88v-16.1h7.91v15.85
		c0,9.23-5.18,13.28-13.18,13.28C217.26,68.37,212.24,64.24,212.24,55.29"/>
	<path d="M240.95,63.59l4.34-5.27c2.77,2.25,5.87,3.43,9.12,3.43c2.09,0,3.21-0.74,3.21-1.96v-0.08c0-1.18-0.92-1.84-4.74-2.74
		c-5.99-1.39-10.61-3.11-10.61-8.99V47.9c0-5.31,4.14-9.15,10.89-9.15c4.78,0,8.52,1.31,11.57,3.8l-3.9,5.6
		c-2.57-1.84-5.38-2.82-7.87-2.82c-1.89,0-2.81,0.82-2.81,1.84v0.08c0,1.31,0.96,1.88,4.86,2.78c6.47,1.43,10.49,3.55,10.49,8.91
		v0.08c0,5.84-4.54,9.32-11.37,9.32C249.14,68.33,244.4,66.73,240.95,63.59"/>
	<polygon points="123.59,75.15 127.86,75.15 131,84.09 134.13,75.15 138.33,75.15 132.73,89.38 129.18,89.38 	"/>
	<path d="M141.28,75.05h3.68l5.87,14.23h-4.1l-1-2.52h-5.32l-0.98,2.52h-4.02L141.28,75.05z M144.63,83.71l-1.54-4.02l-1.56,4.02
		H144.63z"/>
	<polygon points="152.59,78.58 148.45,78.58 148.45,75.15 160.55,75.15 160.55,78.58 156.41,78.58 156.41,89.28 152.59,89.28 	"/>
	<path d="M164.03,75.05h3.68l5.87,14.23h-4.1l-1.01-2.52h-5.32l-0.99,2.52h-4.02L164.03,75.05z M167.38,83.71l-1.54-4.02l-1.56,4.02
		H167.38z"/>
	<polygon points="173.74,75.15 177.31,75.15 182.99,82.62 182.99,75.15 186.77,75.15 186.77,89.28 183.42,89.28 177.53,81.53 
		177.53,89.28 173.74,89.28 	"/>
	<path d="M188.03,75.15h5.32c4.93,0,7.78,2.91,7.78,6.99v0.04c0,4.08-2.9,7.11-7.86,7.11h-5.24V75.15z M193.41,85.81
		c2.29,0,3.8-1.29,3.8-3.57V82.2c0-2.26-1.52-3.57-3.8-3.57h-1.56v7.19H193.41z"/>
	<path d="M205.7,75.05h3.68l5.87,14.23h-4.1l-1-2.52h-5.32l-0.99,2.52h-4.02L205.7,75.05z M209.05,83.71l-1.54-4.02l-1.56,4.02
		H209.05z"/>
	<path d="M214.37,87.18l2.13-2.6c1.36,1.11,2.88,1.7,4.47,1.7c1.02,0,1.58-0.36,1.58-0.97v-0.04c0-0.59-0.45-0.91-2.32-1.35
		c-2.94-0.69-5.2-1.53-5.2-4.44v-0.04c0-2.62,2.03-4.52,5.34-4.52c2.35,0,4.18,0.65,5.67,1.88l-1.91,2.77
		c-1.26-0.91-2.64-1.39-3.86-1.39c-0.93,0-1.38,0.4-1.38,0.91v0.04c0,0.65,0.47,0.93,2.38,1.37c3.17,0.71,5.14,1.76,5.14,4.4v0.04
		c0,2.89-2.23,4.6-5.58,4.6C218.39,89.52,216.06,88.74,214.37,87.18 M218.46,91.48l1.81-2.5h2.46l-1.3,3.8L218.46,91.48z"/>
	<polygon points="227.07,75.15 230.9,75.15 230.9,85.85 237.57,85.85 237.57,89.28 227.07,89.28 	"/>
	<rect x="238.11" y="75.15" width="3.84" height="14.13"/>
	<polygon points="243.29,75.15 247.11,75.15 247.11,80.88 251.86,75.15 256.39,75.15 251.17,81.23 256.57,89.28 251.98,89.28 
		248.51,84.03 247.11,85.63 247.11,89.28 243.29,89.28 	"/>
	<path d="M264.98,87.18l2.13-2.6c1.36,1.11,2.88,1.7,4.47,1.7c1.02,0,1.58-0.36,1.58-0.97v-0.04c0-0.59-0.45-0.91-2.32-1.35
		c-2.94-0.69-5.2-1.53-5.2-4.44v-0.04c0-2.62,2.03-4.52,5.34-4.52c2.35,0,4.18,0.65,5.67,1.88l-1.91,2.77
		c-1.26-0.91-2.64-1.39-3.86-1.39c-0.93,0-1.38,0.4-1.38,0.91v0.04c0,0.65,0.47,0.93,2.38,1.37c3.17,0.71,5.14,1.76,5.14,4.4v0.04
		c0,2.89-2.23,4.6-5.58,4.6C269,89.52,266.67,88.74,264.98,87.18 M269.07,91.48l1.81-2.5h2.46l-1.3,3.8L269.07,91.48z"/>
	<polygon points="277.68,75.15 281.5,75.15 281.5,85.85 288.18,85.85 288.18,89.28 277.68,89.28 	"/>
	<polygon points="288.64,75.15 299.73,75.15 299.73,78.48 292.42,78.48 292.42,80.62 299.04,80.62 299.04,83.71 292.42,83.71 
		292.42,85.95 299.83,85.95 299.83,89.28 288.64,89.28 	"/>
	<path d="M300.59,75.15h6.52c2.11,0,3.57,0.57,4.49,1.53c0.81,0.81,1.22,1.9,1.22,3.29v0.04c0,2.16-1.12,3.59-2.84,4.34l3.29,4.93
		h-4.41L306.09,85h-0.04h-1.64v4.28h-3.82V75.15z M306.94,81.93c1.3,0,2.05-0.65,2.05-1.68v-0.04c0-1.11-0.79-1.68-2.07-1.68h-2.5
		v3.39H306.94z"/>
	<polygon points="182.33,44.59 182.33,39.37 174.29,39.37 174.29,47.78 	"/>
	<polygon points="163.75,44.59 163.75,39.37 155.71,39.37 155.71,47.78 	"/>
	<path d="M174.29,49.03v6.39c0,3.99-2.08,5.86-5.27,5.86c-3.19,0-5.27-1.95-5.27-6.07v-9.38l-8.04,3.19v6.35
		c0,8.91,5.1,13.03,13.23,13.03c8.13,0,13.39-4.03,13.39-13.23v-9.34L174.29,49.03z"/>
	<polygon points="317.59,77.59 317.59,75.2 313.65,75.2 313.65,79.17 	"/>
	<polygon points="313.65,79.97 313.65,89.28 317.59,89.28 317.59,78.39 	"/>
	<polygon points="264.78,77.59 264.78,75.2 260.84,75.2 260.84,79.17 	"/>
	<polygon points="260.84,79.97 260.84,89.28 264.78,89.28 264.78,78.39 	"/>
	<polygon points="274.48,46.62 281.12,46.62 285.99,60.11 290.86,46.62 297.38,46.62 288.69,68.09 283.18,68.09 	"/>
	<polygon points="300.2,46.62 317.44,46.62 317.44,51.64 306.08,51.64 306.08,54.87 316.37,54.87 316.37,59.53 306.08,59.53 
		306.08,62.91 317.59,62.91 317.59,67.94 300.2,67.94 	"/>
</g>
<g>
	<path class="st3" d="M200.66,123.78l0.1,0.47c-0.34,0.36-0.56,0.64-0.67,0.85s-0.16,0.42-0.16,0.62c0,0.1,0.05,0.26,0.15,0.48
		c0.08,0.17,0.12,0.34,0.12,0.49c0,0.19-0.05,0.35-0.15,0.47c-0.1,0.12-0.23,0.18-0.38,0.18c-0.16,0-0.29-0.07-0.4-0.21
		c-0.11-0.14-0.16-0.33-0.16-0.56c0-0.41,0.11-0.83,0.34-1.27C199.67,124.86,200.07,124.35,200.66,123.78z M202.26,123.78l0.1,0.47
		c-0.34,0.36-0.57,0.64-0.67,0.85s-0.16,0.42-0.16,0.62c0,0.1,0.05,0.26,0.15,0.48c0.08,0.17,0.12,0.34,0.12,0.49
		c0,0.19-0.05,0.35-0.15,0.47s-0.23,0.18-0.38,0.18s-0.29-0.07-0.4-0.21c-0.11-0.14-0.16-0.33-0.16-0.56c0-0.41,0.11-0.83,0.34-1.27
		C201.27,124.86,201.67,124.35,202.26,123.78z"/>
	<path class="st3" d="M209.63,133.67l-0.08,0.41c-0.21,0.03-0.37,0.04-0.48,0.04c-0.18,0-0.41-0.02-0.7-0.05
		c-0.31-0.03-0.58-0.05-0.8-0.05c-0.18,0-0.36,0.03-0.55,0.1c0.17-0.55,0.36-1.33,0.58-2.31l0.47-2.17l-1.67,0.07
		c-0.29,0.02-0.59,0.05-0.9,0.08c-0.28,1.29-0.57,2.24-0.86,2.86c-0.3,0.62-0.64,1.07-1.02,1.37c-0.38,0.29-0.75,0.44-1.1,0.44
		c-0.34,0-0.63-0.1-0.88-0.29c-0.18-0.13-0.27-0.3-0.27-0.51c0-0.12,0.03-0.22,0.1-0.31c0.07-0.08,0.15-0.13,0.25-0.13
		c0.16,0,0.33,0.13,0.49,0.4c0.1,0.16,0.19,0.26,0.25,0.31s0.13,0.07,0.21,0.07c0.32,0,0.62-0.3,0.9-0.91
		c0.28-0.61,0.69-2.11,1.24-4.51l0.61-2.65c-0.82,0-1.44,0.16-1.86,0.48c-0.41,0.32-0.62,0.68-0.62,1.08c0,0.13,0.06,0.31,0.17,0.51
		c0.1,0.19,0.15,0.35,0.15,0.47c0,0.14-0.04,0.25-0.11,0.34c-0.08,0.09-0.17,0.13-0.29,0.13c-0.14,0-0.27-0.08-0.37-0.24
		c-0.1-0.16-0.15-0.4-0.15-0.71c0-0.56,0.17-1.05,0.52-1.48c0.35-0.43,0.85-0.73,1.51-0.91c0.38-0.1,1.13-0.15,2.27-0.15
		c-0.3,0.7-0.65,1.95-1.02,3.74c1.09,0,1.95-0.05,2.58-0.14c0.36-1.4,0.67-2.38,0.94-2.93c0.27-0.55,0.58-0.95,0.92-1.2
		c0.34-0.25,0.72-0.37,1.14-0.37c0.36,0,0.64,0.08,0.84,0.24c0.2,0.16,0.29,0.35,0.29,0.55c0,0.12-0.03,0.22-0.1,0.3
		s-0.16,0.12-0.27,0.12c-0.14,0-0.31-0.12-0.49-0.36c-0.19-0.24-0.35-0.36-0.49-0.36c-0.31,0-0.61,0.34-0.91,1.01
		c-0.53,1.2-1.15,3.72-1.86,7.58c0.07,0.01,0.17,0.03,0.29,0.05c0.23,0.05,0.42,0.07,0.57,0.07
		C209.23,133.74,209.42,133.72,209.63,133.67z"/>
	<path class="st3" d="M215,127.78l0.41-0.1l-0.46,1.83c-0.19,0.73-0.36,1.57-0.52,2.52c-0.09,0.52-0.14,0.85-0.14,1
		s0.05,0.22,0.15,0.22c0.07,0,0.17-0.05,0.31-0.15c0.25-0.18,0.5-0.4,0.73-0.67l0.2,0.28c-0.47,0.5-0.77,0.81-0.9,0.91
		c-0.26,0.21-0.51,0.37-0.75,0.47c-0.16,0.07-0.31,0.1-0.46,0.1c-0.11,0-0.19-0.03-0.24-0.09c-0.05-0.06-0.08-0.14-0.08-0.25
		c0-0.07,0.02-0.17,0.05-0.3l0.25-0.98c-0.35,0.5-0.78,0.92-1.27,1.28c-0.3,0.22-0.58,0.33-0.83,0.33c-0.24,0-0.42-0.1-0.55-0.3
		c-0.17-0.27-0.26-0.61-0.26-1.04c0-0.51,0.12-1.08,0.35-1.71s0.54-1.2,0.94-1.71c0.39-0.51,0.8-0.89,1.23-1.13
		c0.33-0.18,0.76-0.28,1.28-0.28c0.13,0,0.27,0.01,0.4,0.03L215,127.78z M214.23,128.89c-0.22-0.05-0.41-0.08-0.56-0.08
		c-0.37,0-0.69,0.12-0.97,0.36c-0.28,0.24-0.53,0.67-0.77,1.29s-0.35,1.24-0.35,1.86c0,0.33,0.05,0.56,0.14,0.71
		c0.09,0.14,0.22,0.22,0.37,0.22c0.28,0,0.59-0.18,0.91-0.54s0.56-0.88,0.72-1.55L214.23,128.89z"/>
	<path class="st3" d="M216.08,129.38l-0.2-0.34l0.46-0.36c0.44-0.36,0.76-0.59,0.94-0.69c0.1-0.06,0.2-0.09,0.28-0.09
		s0.17,0.06,0.25,0.17c0.36,0.54,0.67,1.26,0.91,2.17c0.25,0.91,0.37,1.79,0.37,2.64c0,0.11,0,0.28-0.01,0.51
		c0.7-1.5,1.04-2.69,1.04-3.58c0-0.18-0.03-0.43-0.1-0.73c-0.07-0.34-0.11-0.58-0.11-0.72c0-0.14,0.04-0.26,0.11-0.35
		s0.17-0.14,0.29-0.14c0.14,0,0.26,0.07,0.35,0.2c0.09,0.13,0.13,0.32,0.13,0.56c0,0.62-0.12,1.4-0.36,2.33
		c-0.24,0.93-0.62,1.93-1.15,3c-0.52,1.07-1,1.86-1.43,2.38s-0.85,0.89-1.25,1.12c-0.4,0.22-0.78,0.34-1.14,0.34
		c-0.27,0-0.48-0.06-0.61-0.18c-0.14-0.12-0.21-0.26-0.21-0.42c0-0.14,0.05-0.27,0.16-0.37c0.11-0.1,0.25-0.16,0.43-0.16
		c0.14,0,0.33,0.03,0.57,0.09c0.26,0.07,0.44,0.1,0.53,0.1c0.25,0,0.52-0.12,0.8-0.37c0.38-0.34,0.69-0.74,0.91-1.21
		c0.22-0.47,0.34-0.94,0.34-1.42c0-0.67-0.08-1.48-0.25-2.42c-0.17-0.94-0.4-1.66-0.71-2.16c-0.15-0.25-0.31-0.38-0.49-0.38
		C216.74,128.91,216.45,129.06,216.08,129.38z"/>
	<path class="st3" d="M225.36,127.78l0.41-0.1l-0.46,1.83c-0.19,0.73-0.36,1.57-0.52,2.52c-0.09,0.52-0.14,0.85-0.14,1
		s0.05,0.22,0.15,0.22c0.07,0,0.17-0.05,0.31-0.15c0.25-0.18,0.5-0.4,0.73-0.67l0.2,0.28c-0.47,0.5-0.77,0.81-0.9,0.91
		c-0.26,0.21-0.51,0.37-0.75,0.47c-0.16,0.07-0.31,0.1-0.46,0.1c-0.11,0-0.19-0.03-0.24-0.09c-0.05-0.06-0.08-0.14-0.08-0.25
		c0-0.07,0.02-0.17,0.05-0.3l0.25-0.98c-0.35,0.5-0.78,0.92-1.27,1.28c-0.3,0.22-0.58,0.33-0.83,0.33c-0.24,0-0.42-0.1-0.55-0.3
		c-0.17-0.27-0.26-0.61-0.26-1.04c0-0.51,0.12-1.08,0.35-1.71s0.54-1.2,0.94-1.71c0.39-0.51,0.8-0.89,1.23-1.13
		c0.33-0.18,0.76-0.28,1.28-0.28c0.13,0,0.27,0.01,0.4,0.03L225.36,127.78z M224.6,128.89c-0.22-0.05-0.41-0.08-0.56-0.08
		c-0.37,0-0.69,0.12-0.97,0.36c-0.28,0.24-0.53,0.67-0.77,1.29s-0.35,1.24-0.35,1.86c0,0.33,0.05,0.56,0.14,0.71
		c0.09,0.14,0.22,0.22,0.37,0.22c0.28,0,0.59-0.18,0.91-0.54s0.56-0.88,0.72-1.55L224.6,128.89z"/>
	<path class="st3" d="M228.19,126.79l0.98-0.44l-0.44,2.03h1.28l-0.1,0.51h-1.28l-0.54,2.43c-0.17,0.73-0.26,1.24-0.26,1.52
		c0,0.13,0.02,0.22,0.07,0.28s0.11,0.09,0.19,0.09c0.13,0,0.32-0.09,0.59-0.27c0.35-0.24,0.67-0.5,0.99-0.8l0.23,0.33
		c-0.9,0.8-1.5,1.28-1.81,1.46c-0.3,0.18-0.55,0.27-0.73,0.27c-0.15,0-0.27-0.07-0.36-0.2c-0.09-0.13-0.13-0.34-0.13-0.64
		c0-0.35,0.08-0.88,0.23-1.59l0.63-2.88h-1l0.11-0.51h1L228.19,126.79z"/>
	<path class="st3" d="M230.71,129.59l-0.27-0.25c0.41-0.53,0.79-0.91,1.13-1.13c0.34-0.22,0.63-0.34,0.87-0.34
		c0.13,0,0.23,0.03,0.3,0.1s0.1,0.16,0.1,0.27c0,0.14-0.13,0.73-0.4,1.78c-0.44,1.71-0.66,2.75-0.66,3.1c0,0.07,0.01,0.12,0.04,0.17
		c0.03,0.05,0.06,0.07,0.09,0.07c0.04,0,0.11-0.03,0.2-0.1c0.23-0.18,0.43-0.37,0.61-0.58c0.08-0.09,0.15-0.16,0.2-0.22l0.25,0.28
		c-0.5,0.54-0.81,0.85-0.91,0.94c-0.23,0.2-0.45,0.35-0.65,0.44c-0.1,0.05-0.2,0.07-0.3,0.07c-0.15,0-0.26-0.05-0.35-0.16
		s-0.13-0.25-0.13-0.45c0-0.35,0.08-0.89,0.25-1.62c0.29-1.3,0.51-2.23,0.68-2.8c0.03-0.12,0.05-0.21,0.05-0.3
		c0-0.1-0.04-0.14-0.11-0.14c-0.08,0-0.18,0.04-0.28,0.12S231.07,129.17,230.71,129.59z"/>
	<path class="st3" d="M233.72,129.61l-0.21-0.25c0.53-0.59,0.95-0.99,1.26-1.18c0.31-0.19,0.58-0.29,0.8-0.29
		c0.09,0,0.15,0.02,0.2,0.06c0.05,0.04,0.07,0.09,0.07,0.15c0,0.04-0.01,0.12-0.03,0.23l-0.28,1.46c0.42-0.55,0.95-1.06,1.58-1.53
		c0.34-0.25,0.61-0.37,0.83-0.37c0.16,0,0.29,0.06,0.38,0.18c0.09,0.12,0.14,0.29,0.14,0.52c0,0.15-0.02,0.32-0.06,0.51
		c-0.07,0.31-0.24,1-0.52,2.05c-0.26,0.98-0.39,1.64-0.39,1.96c0,0.1,0.01,0.17,0.04,0.22c0.02,0.05,0.06,0.07,0.1,0.07
		c0.12,0,0.31-0.14,0.56-0.41c0.18-0.19,0.36-0.37,0.54-0.54l0.15,0.26c-0.38,0.49-0.77,0.88-1.18,1.18
		c-0.26,0.19-0.47,0.29-0.64,0.29c-0.16,0-0.28-0.07-0.36-0.2s-0.13-0.35-0.13-0.65c0-0.43,0.23-1.5,0.69-3.21
		c0.14-0.61,0.21-0.96,0.21-1.06c0-0.15-0.08-0.22-0.23-0.22c-0.16,0-0.38,0.1-0.64,0.3c-0.39,0.3-0.71,0.65-0.97,1.06
		c-0.16,0.26-0.3,0.68-0.41,1.25l-0.5,2.53h-0.92c0.17-0.72,0.32-1.42,0.45-2.08l0.55-2.75c0.02-0.11,0.03-0.19,0.03-0.24
		c0-0.13-0.04-0.2-0.12-0.2c-0.07,0-0.16,0.05-0.28,0.15C234.18,129.08,233.94,129.32,233.72,129.61z"/>
	<path class="st3" d="M239.56,129.59l-0.27-0.25c0.41-0.53,0.79-0.91,1.13-1.13c0.34-0.22,0.63-0.34,0.87-0.34
		c0.13,0,0.23,0.03,0.3,0.1s0.1,0.16,0.1,0.27c0,0.14-0.13,0.73-0.4,1.78c-0.44,1.71-0.66,2.75-0.66,3.1c0,0.07,0.01,0.12,0.04,0.17
		c0.03,0.05,0.06,0.07,0.09,0.07c0.04,0,0.11-0.03,0.2-0.1c0.23-0.18,0.43-0.37,0.61-0.58c0.08-0.09,0.15-0.16,0.2-0.22l0.25,0.28
		c-0.5,0.54-0.81,0.85-0.91,0.94c-0.23,0.2-0.45,0.35-0.65,0.44c-0.1,0.05-0.2,0.07-0.3,0.07c-0.15,0-0.26-0.05-0.35-0.16
		s-0.13-0.25-0.13-0.45c0-0.35,0.08-0.89,0.25-1.62c0.29-1.3,0.51-2.23,0.68-2.8c0.03-0.12,0.05-0.21,0.05-0.3
		c0-0.1-0.04-0.14-0.11-0.14c-0.08,0-0.18,0.04-0.28,0.12S239.92,129.17,239.56,129.59z"/>
	<path class="st3" d="M246.29,128.66c-0.37,0.12-0.72,0.18-1.03,0.18c-0.17,0-0.36-0.01-0.57-0.04c-0.29-0.04-0.49-0.06-0.59-0.06
		c-0.12,0-0.22,0.03-0.28,0.1c-0.07,0.07-0.1,0.15-0.1,0.26c0,0.17,0.07,0.25,0.22,0.27c0.19,0.02,0.28,0.12,0.28,0.3
		c0,0.08-0.03,0.16-0.09,0.22c-0.06,0.06-0.12,0.1-0.2,0.1c-0.15,0-0.29-0.09-0.41-0.26c-0.13-0.17-0.19-0.38-0.19-0.64
		c0-0.33,0.12-0.61,0.35-0.85c0.23-0.24,0.52-0.35,0.87-0.35c0.18,0,0.43,0.03,0.73,0.09c0.5,0.09,0.86,0.14,1.07,0.14
		c0.22,0,0.43-0.09,0.62-0.26c0.09-0.08,0.16-0.12,0.22-0.12c0.05,0,0.09,0.02,0.13,0.05c0.03,0.04,0.05,0.07,0.05,0.11
		c0,0.05-0.02,0.1-0.07,0.16c-0.14,0.2-0.46,0.58-0.96,1.14l-1.91,2.15c-0.56,0.63-1.02,1.13-1.4,1.52
		c0.23-0.03,0.42-0.05,0.55-0.05c0.19,0,0.35,0.02,0.51,0.05s0.4,0.12,0.73,0.25c0.44,0.18,0.8,0.27,1.07,0.27
		c0.17,0,0.31-0.05,0.4-0.14c0.09-0.09,0.14-0.21,0.14-0.36c0-0.08-0.03-0.2-0.1-0.35c-0.06-0.14-0.09-0.25-0.09-0.33
		c0-0.12,0.03-0.21,0.1-0.3c0.07-0.08,0.15-0.12,0.25-0.12c0.12,0,0.22,0.06,0.3,0.17c0.08,0.11,0.12,0.26,0.12,0.44
		c0,0.27-0.08,0.56-0.25,0.85s-0.38,0.53-0.64,0.69c-0.26,0.16-0.57,0.24-0.94,0.24c-0.31,0-0.76-0.1-1.35-0.31
		c-0.49-0.17-0.86-0.25-1.09-0.25c-0.14,0-0.3,0.09-0.49,0.26c-0.11,0.11-0.2,0.16-0.28,0.16c-0.15,0-0.23-0.04-0.23-0.13
		c0-0.08,0.04-0.18,0.13-0.3c0.23-0.32,0.82-0.98,1.75-1.97c0.63-0.67,1.19-1.29,1.67-1.84L246.29,128.66z"/>
	<path class="st3" d="M248.15,129.59l-0.27-0.25c0.41-0.53,0.79-0.91,1.13-1.13c0.34-0.22,0.63-0.34,0.87-0.34
		c0.13,0,0.23,0.03,0.3,0.1s0.1,0.16,0.1,0.27c0,0.14-0.13,0.73-0.4,1.78c-0.44,1.71-0.66,2.75-0.66,3.1c0,0.07,0.01,0.12,0.04,0.17
		c0.03,0.05,0.06,0.07,0.09,0.07c0.04,0,0.11-0.03,0.2-0.1c0.23-0.18,0.43-0.37,0.61-0.58c0.08-0.09,0.15-0.16,0.2-0.22l0.25,0.28
		c-0.5,0.54-0.81,0.85-0.91,0.94c-0.23,0.2-0.45,0.35-0.65,0.44c-0.1,0.05-0.2,0.07-0.3,0.07c-0.15,0-0.26-0.05-0.35-0.16
		s-0.13-0.25-0.13-0.45c0-0.35,0.08-0.89,0.25-1.62c0.29-1.3,0.51-2.23,0.68-2.8c0.03-0.12,0.05-0.21,0.05-0.3
		c0-0.1-0.04-0.14-0.11-0.14c-0.08,0-0.18,0.04-0.28,0.12S248.51,129.17,248.15,129.59z"/>
	<path class="st3" d="M251.17,129.61l-0.21-0.25c0.53-0.59,0.95-0.99,1.26-1.18c0.31-0.19,0.58-0.29,0.8-0.29
		c0.09,0,0.15,0.02,0.2,0.06c0.05,0.04,0.07,0.09,0.07,0.15c0,0.04-0.01,0.12-0.03,0.23l-0.28,1.46c0.42-0.55,0.95-1.06,1.58-1.53
		c0.34-0.25,0.61-0.37,0.83-0.37c0.16,0,0.29,0.06,0.38,0.18c0.09,0.12,0.14,0.29,0.14,0.52c0,0.15-0.02,0.32-0.06,0.51
		c-0.07,0.31-0.24,1-0.52,2.05c-0.26,0.98-0.39,1.64-0.39,1.96c0,0.1,0.01,0.17,0.04,0.22c0.02,0.05,0.06,0.07,0.1,0.07
		c0.12,0,0.31-0.14,0.56-0.41c0.18-0.19,0.36-0.37,0.54-0.54l0.15,0.26c-0.38,0.49-0.77,0.88-1.18,1.18
		c-0.26,0.19-0.47,0.29-0.64,0.29c-0.16,0-0.28-0.07-0.36-0.2s-0.13-0.35-0.13-0.65c0-0.43,0.23-1.5,0.69-3.21
		c0.14-0.61,0.21-0.96,0.21-1.06c0-0.15-0.08-0.22-0.23-0.22c-0.16,0-0.38,0.1-0.64,0.3c-0.39,0.3-0.71,0.65-0.97,1.06
		c-0.16,0.26-0.3,0.68-0.41,1.25l-0.5,2.53h-0.92c0.17-0.72,0.32-1.42,0.45-2.08l0.55-2.75c0.02-0.11,0.03-0.19,0.03-0.24
		c0-0.13-0.04-0.2-0.12-0.2c-0.07,0-0.16,0.05-0.28,0.15C251.63,129.08,251.39,129.32,251.17,129.61z"/>
	<path class="st3" d="M267.02,133.67l-0.08,0.41c-0.21,0.03-0.37,0.04-0.48,0.04c-0.18,0-0.41-0.02-0.7-0.05
		c-0.31-0.03-0.58-0.05-0.8-0.05c-0.18,0-0.36,0.03-0.55,0.1c0.17-0.55,0.36-1.33,0.58-2.31l0.47-2.17l-1.67,0.07
		c-0.29,0.02-0.59,0.05-0.9,0.08c-0.28,1.29-0.57,2.24-0.86,2.86c-0.3,0.62-0.64,1.07-1.02,1.37c-0.38,0.29-0.75,0.44-1.1,0.44
		c-0.34,0-0.63-0.1-0.88-0.29c-0.18-0.13-0.27-0.3-0.27-0.51c0-0.12,0.03-0.22,0.1-0.31c0.07-0.08,0.15-0.13,0.25-0.13
		c0.16,0,0.33,0.13,0.49,0.4c0.1,0.16,0.19,0.26,0.25,0.31s0.13,0.07,0.21,0.07c0.32,0,0.62-0.3,0.9-0.91
		c0.28-0.61,0.69-2.11,1.24-4.51l0.61-2.65c-0.82,0-1.44,0.16-1.86,0.48c-0.41,0.32-0.62,0.68-0.62,1.08c0,0.13,0.06,0.31,0.17,0.51
		c0.1,0.19,0.15,0.35,0.15,0.47c0,0.14-0.04,0.25-0.11,0.34c-0.08,0.09-0.17,0.13-0.29,0.13c-0.14,0-0.27-0.08-0.37-0.24
		c-0.1-0.16-0.15-0.4-0.15-0.71c0-0.56,0.17-1.05,0.52-1.48c0.35-0.43,0.85-0.73,1.51-0.91c0.38-0.1,1.13-0.15,2.27-0.15
		c-0.3,0.7-0.65,1.95-1.02,3.74c1.09,0,1.95-0.05,2.58-0.14c0.36-1.4,0.67-2.38,0.94-2.93c0.27-0.55,0.58-0.95,0.92-1.2
		c0.34-0.25,0.72-0.37,1.14-0.37c0.36,0,0.64,0.08,0.84,0.24c0.2,0.16,0.29,0.35,0.29,0.55c0,0.12-0.03,0.22-0.1,0.3
		s-0.16,0.12-0.27,0.12c-0.14,0-0.31-0.12-0.49-0.36c-0.19-0.24-0.35-0.36-0.49-0.36c-0.31,0-0.61,0.34-0.91,1.01
		c-0.53,1.2-1.15,3.72-1.86,7.58c0.07,0.01,0.17,0.03,0.29,0.05c0.23,0.05,0.42,0.07,0.57,0.07
		C266.62,133.74,266.81,133.72,267.02,133.67z"/>
	<path class="st3" d="M271.41,132.18l0.2,0.32c-1.01,1.12-1.87,1.69-2.59,1.69c-0.29,0-0.52-0.12-0.67-0.35s-0.23-0.6-0.23-1.12
		c0-1.03,0.27-2.06,0.8-3.08c0.6-1.16,1.32-1.75,2.16-1.75c0.29,0,0.52,0.09,0.67,0.26c0.15,0.17,0.23,0.41,0.23,0.71
		c0,0.31-0.09,0.62-0.28,0.93s-0.52,0.62-0.99,0.95c-0.24,0.16-0.75,0.45-1.53,0.86c-0.04,0.26-0.06,0.51-0.06,0.75
		c0,0.34,0.05,0.58,0.14,0.72c0.09,0.14,0.23,0.2,0.4,0.2c0.17,0,0.35-0.06,0.56-0.17C270.49,132.94,270.89,132.64,271.41,132.18z
		 M269.25,131.13c0.66-0.35,1.16-0.72,1.49-1.12c0.23-0.28,0.34-0.56,0.34-0.83c0-0.21-0.05-0.37-0.14-0.5s-0.21-0.18-0.36-0.18
		c-0.15,0-0.3,0.07-0.44,0.2c-0.19,0.18-0.36,0.45-0.49,0.81C269.46,130.04,269.33,130.58,269.25,131.13z"/>
	<path class="st3" d="M273.62,133.99h-0.92l0.43-1.95c0.21-0.96,0.39-1.86,0.55-2.72c0.04-0.21,0.06-0.34,0.06-0.4
		c0-0.12-0.05-0.17-0.14-0.17c-0.06,0-0.16,0.05-0.28,0.15c-0.13,0.1-0.36,0.34-0.69,0.74l-0.19-0.25c0.4-0.5,0.79-0.87,1.18-1.12
		c0.39-0.25,0.69-0.37,0.9-0.37c0.07,0,0.13,0.02,0.18,0.06c0.04,0.04,0.06,0.09,0.06,0.16c0,0.06-0.03,0.23-0.08,0.5l-0.27,1.3
		c0.42-0.77,0.89-1.43,1.41-1.98c0.25-0.26,0.46-0.39,0.63-0.39c0.12,0,0.23,0.05,0.31,0.14s0.12,0.2,0.12,0.33
		c0,0.13-0.04,0.24-0.12,0.33s-0.28,0.2-0.6,0.33c-0.3,0.12-0.55,0.27-0.74,0.43c-0.19,0.17-0.4,0.43-0.63,0.77
		c-0.23,0.35-0.39,0.65-0.48,0.91c-0.09,0.26-0.23,0.86-0.41,1.8L273.62,133.99z"/>
	<path class="st3" d="M285.99,133.68l-0.06,0.41c-0.15,0.01-0.28,0.02-0.39,0.02c-0.16,0-0.35-0.01-0.58-0.04
		c-0.39-0.05-0.63-0.07-0.73-0.07c-0.17,0-0.44,0.03-0.8,0.09c0.13-0.38,0.23-0.77,0.32-1.19c0.06-0.29,0.13-0.8,0.2-1.52
		c-0.48,0-1.23,0.01-2.24,0.04c-1.05,1.87-1.82,3.05-2.3,3.53c-0.49,0.48-0.95,0.72-1.39,0.72c-0.23,0-0.4-0.05-0.52-0.16
		s-0.17-0.24-0.17-0.4c0-0.13,0.03-0.23,0.1-0.31s0.15-0.12,0.25-0.12c0.06,0,0.14,0.01,0.23,0.04c0.25,0.07,0.41,0.1,0.49,0.1
		c0.28,0,0.58-0.18,0.91-0.55c0.54-0.6,1.35-1.85,2.41-3.76c1.2-2.16,2.17-3.74,2.92-4.72c-1.02,0.11-1.65,0.21-1.9,0.3
		c-0.35,0.13-0.6,0.32-0.78,0.58s-0.26,0.52-0.26,0.78c0,0.09,0.03,0.21,0.08,0.37c0.06,0.18,0.09,0.31,0.09,0.39
		c0,0.11-0.04,0.2-0.1,0.28s-0.15,0.12-0.25,0.12c-0.14,0-0.25-0.06-0.34-0.18s-0.13-0.31-0.13-0.55c0-0.35,0.08-0.68,0.23-1.01
		c0.15-0.33,0.38-0.6,0.66-0.82s0.65-0.39,1.08-0.5c0.22-0.06,0.61-0.12,1.17-0.17c0.49-0.05,0.79-0.09,0.92-0.14
		c0.19-0.06,0.38-0.19,0.56-0.37c-0.12,0.59-0.21,1.11-0.27,1.56l-0.48,4.18l-0.28,3c0.3,0.09,0.58,0.14,0.82,0.14
		C285.63,133.74,285.8,133.72,285.99,133.68z M284,130.85c0.2-1.96,0.4-3.39,0.59-4.29c-0.52,0.81-0.84,1.32-0.97,1.54l-1.59,2.76
		c0.34,0.01,0.83,0.02,1.46,0.02C283.66,130.87,283.83,130.86,284,130.85z"/>
	<path class="st3" d="M287.07,129.61l-0.21-0.25c0.53-0.59,0.95-0.99,1.26-1.18c0.31-0.19,0.58-0.29,0.8-0.29
		c0.09,0,0.15,0.02,0.2,0.06c0.05,0.04,0.07,0.09,0.07,0.15c0,0.04-0.01,0.12-0.03,0.23l-0.28,1.46c0.42-0.55,0.95-1.06,1.58-1.53
		c0.34-0.25,0.61-0.37,0.83-0.37c0.16,0,0.29,0.06,0.38,0.18c0.09,0.12,0.14,0.29,0.14,0.52c0,0.15-0.02,0.32-0.06,0.51
		c-0.07,0.31-0.24,1-0.52,2.05c-0.26,0.98-0.39,1.64-0.39,1.96c0,0.1,0.01,0.17,0.04,0.22c0.02,0.05,0.06,0.07,0.1,0.07
		c0.12,0,0.31-0.14,0.56-0.41c0.18-0.19,0.36-0.37,0.54-0.54l0.15,0.26c-0.38,0.49-0.77,0.88-1.18,1.18
		c-0.26,0.19-0.47,0.29-0.64,0.29c-0.16,0-0.28-0.07-0.36-0.2s-0.13-0.35-0.13-0.65c0-0.43,0.23-1.5,0.69-3.21
		c0.14-0.61,0.21-0.96,0.21-1.06c0-0.15-0.08-0.22-0.23-0.22c-0.16,0-0.38,0.1-0.64,0.3c-0.39,0.3-0.71,0.65-0.97,1.06
		c-0.16,0.26-0.3,0.68-0.41,1.25l-0.5,2.53h-0.92c0.17-0.72,0.32-1.42,0.45-2.08l0.55-2.75c0.02-0.11,0.03-0.19,0.03-0.24
		c0-0.13-0.04-0.2-0.12-0.2c-0.07,0-0.16,0.05-0.28,0.15C287.53,129.08,287.29,129.32,287.07,129.61z"/>
	<path class="st3" d="M292.91,129.59l-0.27-0.25c0.41-0.53,0.79-0.91,1.13-1.13c0.34-0.22,0.63-0.34,0.87-0.34
		c0.13,0,0.23,0.03,0.3,0.1s0.1,0.16,0.1,0.27c0,0.14-0.13,0.73-0.4,1.78c-0.44,1.71-0.66,2.75-0.66,3.1c0,0.07,0.01,0.12,0.04,0.17
		c0.03,0.05,0.06,0.07,0.09,0.07c0.04,0,0.11-0.03,0.2-0.1c0.23-0.18,0.43-0.37,0.61-0.58c0.08-0.09,0.15-0.16,0.2-0.22l0.25,0.28
		c-0.5,0.54-0.81,0.85-0.91,0.94c-0.23,0.2-0.45,0.35-0.65,0.44c-0.1,0.05-0.2,0.07-0.3,0.07c-0.15,0-0.26-0.05-0.35-0.16
		s-0.13-0.25-0.13-0.45c0-0.35,0.08-0.89,0.25-1.62c0.29-1.3,0.51-2.23,0.68-2.8c0.03-0.12,0.05-0.21,0.05-0.3
		c0-0.1-0.04-0.14-0.11-0.14c-0.08,0-0.18,0.04-0.28,0.12S293.27,129.17,292.91,129.59z"/>
	<path class="st3" d="M295.92,129.61l-0.21-0.25c0.53-0.59,0.95-0.99,1.26-1.18c0.31-0.19,0.58-0.29,0.8-0.29
		c0.09,0,0.15,0.02,0.2,0.06c0.05,0.04,0.07,0.09,0.07,0.15c0,0.04-0.01,0.12-0.03,0.23l-0.28,1.46c0.42-0.55,0.95-1.06,1.58-1.53
		c0.34-0.25,0.61-0.37,0.83-0.37c0.16,0,0.29,0.06,0.38,0.18c0.09,0.12,0.14,0.29,0.14,0.52c0,0.15-0.02,0.32-0.06,0.51
		c-0.07,0.31-0.24,1-0.52,2.05c-0.26,0.98-0.39,1.64-0.39,1.96c0,0.1,0.01,0.17,0.04,0.22c0.02,0.05,0.06,0.07,0.1,0.07
		c0.12,0,0.31-0.14,0.56-0.41c0.18-0.19,0.36-0.37,0.54-0.54l0.15,0.26c-0.38,0.49-0.77,0.88-1.18,1.18
		c-0.26,0.19-0.47,0.29-0.64,0.29c-0.16,0-0.28-0.07-0.36-0.2s-0.13-0.35-0.13-0.65c0-0.43,0.23-1.5,0.69-3.21
		c0.14-0.61,0.21-0.96,0.21-1.06c0-0.15-0.08-0.22-0.23-0.22c-0.16,0-0.38,0.1-0.64,0.3c-0.39,0.3-0.71,0.65-0.97,1.06
		c-0.16,0.26-0.3,0.68-0.41,1.25l-0.5,2.53h-0.92c0.17-0.72,0.32-1.42,0.45-2.08l0.55-2.75c0.02-0.11,0.03-0.19,0.03-0.24
		c0-0.13-0.04-0.2-0.12-0.2c-0.07,0-0.16,0.05-0.28,0.15C296.38,129.08,296.14,129.32,295.92,129.61z"/>
	<path class="st3" d="M306.3,132.5l0.17,0.27c-0.55,0.55-0.96,0.91-1.23,1.09c-0.37,0.25-0.66,0.37-0.88,0.37
		c-0.1,0-0.18-0.03-0.24-0.1c-0.06-0.07-0.09-0.14-0.09-0.22s0.02-0.22,0.07-0.41l0.22-0.88c-0.49,0.62-0.91,1.05-1.23,1.27
		c-0.33,0.22-0.63,0.33-0.89,0.33c-0.22,0-0.4-0.11-0.55-0.34c-0.15-0.22-0.22-0.55-0.22-0.99c0-0.69,0.2-1.47,0.6-2.37
		s0.85-1.55,1.34-1.98c0.49-0.43,0.94-0.64,1.35-0.64c0.09,0,0.23,0.02,0.41,0.05c0.19-0.94,0.38-1.62,0.56-2.06
		c0.18-0.43,0.41-0.8,0.69-1.12c0.28-0.31,0.6-0.55,0.96-0.73s0.7-0.26,1.01-0.26c0.16,0,0.3,0.05,0.4,0.15s0.15,0.23,0.15,0.38
		c0,0.15-0.05,0.27-0.14,0.37s-0.21,0.14-0.37,0.14c-0.1,0-0.29-0.02-0.58-0.07c-0.28-0.05-0.47-0.07-0.58-0.07
		c-0.14,0-0.27,0.05-0.38,0.16s-0.21,0.33-0.31,0.67c-0.07,0.22-0.22,0.91-0.45,2.08l-0.87,4.37c-0.1,0.52-0.15,0.86-0.15,1.03
		c0,0.18,0.06,0.28,0.18,0.28c0.07,0,0.16-0.03,0.26-0.09C305.63,133.09,305.9,132.86,306.3,132.5z M305,128.75
		c-0.33-0.09-0.56-0.13-0.7-0.13c-0.28,0-0.55,0.13-0.81,0.38c-0.26,0.25-0.52,0.75-0.76,1.47c-0.24,0.73-0.37,1.37-0.37,1.91
		c0,0.25,0.06,0.45,0.17,0.61c0.11,0.16,0.24,0.24,0.39,0.24c0.17,0,0.37-0.09,0.59-0.27c0.32-0.27,0.57-0.59,0.75-0.97
		c0.11-0.24,0.26-0.83,0.45-1.78L305,128.75z"/>
	<path class="st3" d="M311.32,127.78l0.41-0.1l-0.46,1.83c-0.19,0.73-0.36,1.57-0.52,2.52c-0.09,0.52-0.14,0.85-0.14,1
		s0.05,0.22,0.15,0.22c0.07,0,0.17-0.05,0.31-0.15c0.25-0.18,0.5-0.4,0.73-0.67l0.2,0.28c-0.47,0.5-0.77,0.81-0.9,0.91
		c-0.26,0.21-0.51,0.37-0.75,0.47c-0.16,0.07-0.31,0.1-0.46,0.1c-0.11,0-0.19-0.03-0.24-0.09c-0.05-0.06-0.08-0.14-0.08-0.25
		c0-0.07,0.02-0.17,0.05-0.3l0.25-0.98c-0.35,0.5-0.78,0.92-1.27,1.28c-0.3,0.22-0.58,0.33-0.83,0.33c-0.24,0-0.42-0.1-0.55-0.3
		c-0.17-0.27-0.26-0.61-0.26-1.04c0-0.51,0.12-1.08,0.35-1.71s0.54-1.2,0.94-1.71c0.39-0.51,0.8-0.89,1.23-1.13
		c0.33-0.18,0.76-0.28,1.28-0.28c0.13,0,0.27,0.01,0.4,0.03L311.32,127.78z M310.56,128.89c-0.22-0.05-0.41-0.08-0.56-0.08
		c-0.37,0-0.69,0.12-0.97,0.36c-0.28,0.24-0.53,0.67-0.77,1.29s-0.35,1.24-0.35,1.86c0,0.33,0.05,0.56,0.14,0.71
		c0.09,0.14,0.22,0.22,0.37,0.22c0.28,0,0.59-0.18,0.91-0.54s0.56-0.88,0.72-1.55L310.56,128.89z"/>
	<path class="st3" d="M313.89,127.35l-0.1-0.46c0.35-0.36,0.57-0.64,0.68-0.86c0.1-0.21,0.16-0.42,0.16-0.61
		c0-0.11-0.05-0.27-0.15-0.49c-0.08-0.17-0.12-0.33-0.12-0.48c0-0.2,0.05-0.36,0.15-0.48c0.1-0.12,0.22-0.18,0.38-0.18
		c0.16,0,0.29,0.07,0.4,0.21c0.11,0.14,0.16,0.33,0.16,0.56c0,0.41-0.11,0.83-0.34,1.27C314.88,126.27,314.47,126.77,313.89,127.35z
		 M315.5,127.35l-0.11-0.46c0.34-0.36,0.57-0.64,0.67-0.86c0.1-0.21,0.16-0.42,0.16-0.61c0-0.11-0.05-0.27-0.15-0.49
		c-0.08-0.17-0.12-0.33-0.12-0.48c0-0.2,0.05-0.36,0.15-0.48c0.1-0.12,0.23-0.18,0.38-0.18c0.16,0,0.29,0.07,0.4,0.21
		c0.11,0.14,0.16,0.33,0.16,0.56c0,0.41-0.11,0.83-0.34,1.27S316.08,126.77,315.5,127.35z"/>
</g>
</svg>
