<?xml version="1.0" encoding="utf-8"?>
<!-- Generator: Adobe Illustrator 24.0.3, SVG Export Plug-In . SVG Version: 6.00 Build 0)  -->
<svg version="1.1" id="Layer_1" xmlns="http://www.w3.org/2000/svg" xmlns:xlink="http://www.w3.org/1999/xlink" x="0px" y="0px"
	 viewBox="0 0 200 200"  xml:space="preserve">
<style type="text/css">
	.st0{fill:#DB0032;}
	.st1{fill:#020203;}
	.st2{fill:#B2B2B2;}
	.st3{fill:#3C3C3B;}
</style>
<g>
	<polygon class="st0" points="79.47,58.67 79.74,59.66 82.73,56.55 	"/>
	<polygon class="st0" points="70.66,51.54 70.69,51.51 71.73,48.8 68.98,51.45 	"/>
	<polygon class="st0" points="71.73,48.8 74.44,41.76 65.29,51.26 68.98,51.45 	"/>
	<path class="st0" d="M87.24,33.86c-1.04-0.73-2.11-1.42-3.2-2.07l-9.2,9.56l0.95,3.54L87.24,33.86z"/>
	<path class="st0" d="M21.06,97.2c0.04,0.09,0.09,0.18,0.13,0.27L64.87,55.4l-2-1.63L21.06,97.2z"/>
	<path class="st0" d="M31.86,109.38c0.07,0.05,0.14,0.1,0.21,0.14L77.58,65.7l-2.05-1.67L31.86,109.38z"/>
	<path class="st0" d="M82.73,56.55l-2.99,3.11l0.84,3.15L98.76,45.3c-0.73-1.03-1.51-2.03-2.32-2.99l-9.71,10.08l2.22,0.12
		L82.73,56.55z"/>
	<path class="st0" d="M81.85,69.16l-42.34,43.96c0.13,0.04,0.26,0.08,0.39,0.13l63.09-60.76c-0.56-1.16-1.15-2.3-1.8-3.41
		L82.18,68.82"/>
	<path class="st0" d="M35.48,111.47c0.09,0.05,0.18,0.09,0.28,0.14l45-43.33l-2.07-1.68L35.48,111.47z"/>
	<path class="st0" d="M101.01,48.77c-0.65-1.1-1.34-2.16-2.07-3.2L80.96,64.24l0.81,3.05L101.01,48.77z"/>
	<path class="st0" d="M83.73,31.61c-1.11-0.64-2.25-1.24-3.41-1.8L59.93,50.97l3.5,0.19L83.73,31.61z"/>
	<path class="st0" d="M19.34,93.13c0.04,0.12,0.08,0.24,0.13,0.37L61.7,52.82l-1.99-1.62L19.34,93.13z"/>
	<path class="st0" d="M21.52,67.46c-0.51,0.93-0.97,1.88-1.37,2.84l18.11-17.44c-1.73,0.65-3.4,1.47-5.01,2.43L21.52,67.46z"/>
	<path class="st0" d="M40.97,50.25l25.54-24.6c-1.42-0.2-2.87-0.34-4.33-0.41L37.84,50.52C38.88,50.39,39.92,50.31,40.97,50.25"/>
	<path class="st0" d="M24.87,54.48l30.19-29.08c-1.71,0.17-3.4,0.42-5.05,0.76L19.82,57.53C21.44,56.38,23.13,55.36,24.87,54.48"/>
	<path class="st0" d="M76.31,28.12l-58.16,60.4c0.03,0.17,0.06,0.35,0.1,0.52l61.69-59.41C78.75,29.08,77.54,28.58,76.31,28.12"/>
	<path class="st0" d="M107.6,71.67L82.05,98.21c-0.24,1.15-0.51,2.3-0.85,3.44l26.31-25.34c0.07-1.07,0.11-2.16,0.11-3.25
		C107.62,72.59,107.62,72.13,107.6,71.67"/>
	<path class="st0" d="M42.1,28.54L14.6,57.1c-0.28,0.79-0.54,1.59-0.77,2.39l34.1-32.84C45.93,27.16,43.99,27.79,42.1,28.54"/>
	<path class="st0" d="M17.97,78.03l28.08-27.04c-1.22,0.13-2.43,0.34-3.63,0.62L18.18,76.78C18.1,77.2,18.03,77.61,17.97,78.03"/>
	<path class="st0" d="M46.68,50.38L71.38,26.6c-1.34-0.33-2.7-0.61-4.08-0.83L43.76,50.22C44.74,50.24,45.71,50.29,46.68,50.38"/>
	<path class="st0" d="M48.83,50.8l-31.2,32.4c0,0.26,0.01,0.52,0.02,0.77l58.18-56.03c-1.26-0.45-2.54-0.85-3.84-1.19L48.96,50.67"
		/>
	<path class="st0" d="M76.5,111.8l30.13-29.01c0.34-1.65,0.6-3.34,0.76-5.05l-28.3,29.39C78.35,108.73,77.48,110.29,76.5,111.8"/>
	<path class="st0" d="M80.07,52.03L93.5,39.1c-0.89-0.89-1.82-1.74-2.78-2.55L77.29,50.5l0.38,1.4L80.07,52.03z"/>
	<path class="st0" d="M25.72,104.05c0.05,0.06,0.1,0.12,0.15,0.17l38.98-37.54l2.09-5.44L25.72,104.05z"/>
	<path class="st0" d="M23.2,100.82c0.05,0.07,0.1,0.14,0.14,0.21l44.7-43.05l-2.02-1.64L23.2,100.82z"/>
	<path class="st0" d="M90.5,36.36c-0.97-0.81-1.96-1.58-2.99-2.32L76.06,45.93l0.92,3.44L90.5,36.36z"/>
	<polygon class="st0" points="70.67,51.54 70.69,51.51 70.66,51.54 	"/>
	<path class="st0" d="M75.71,118.21l28.56-27.5c0.75-1.89,1.38-3.83,1.88-5.82l-32.84,34.1C74.12,118.74,74.92,118.48,75.71,118.21"
		/>
	<path class="st0" d="M67.72,66.29l-39.1,40.6c0.06,0.05,0.12,0.1,0.18,0.15L74.4,63.13l-0.8-0.65L67.72,66.29z"/>
	<path class="st0" d="M96.25,42.08c-0.81-0.96-1.67-1.88-2.55-2.78L81.38,52.1l4.23,0.23L96.25,42.08z"/>
	<path class="st0" d="M34.17,51.17L61.13,25.2c-0.46-0.01-0.92-0.02-1.38-0.02c-1.09,0-2.18,0.04-3.25,0.11L30.67,52.11
		C31.83,51.74,32.99,51.43,34.17,51.17"/>
	<path class="st0" d="M28.65,36.66l-6.45,6.69c-1.67,2.11-3.17,4.36-4.47,6.74l20.66-19.9C34.88,31.96,31.6,34.13,28.65,36.66"/>
	<path class="st0" d="M103.17,52.87l-59.12,61.39c0.18,0.03,0.37,0.06,0.55,0.09l60.08-57.86
		C104.23,55.27,103.72,54.06,103.17,52.87"/>
	<path class="st0" d="M89.45,110.6l6.69-6.44c2.53-2.96,4.71-6.23,6.46-9.75l-19.9,20.66C85.09,113.77,87.34,112.28,89.45,110.6"/>
	<path class="st0" d="M78.91,95.62l-15.35,15.94c1.25-0.6,2.46-1.28,3.63-2.05l8.42-8.11C76.93,99.56,78.03,97.62,78.91,95.62"/>
	<path class="st0" d="M82.62,94.65l24.94-24.02c-0.07-1.46-0.21-2.91-0.41-4.33l-24.3,25.23C82.82,92.57,82.73,93.61,82.62,94.65"/>
	<path class="st0" d="M81.55,81.17l-32.33,33.57c0.28,0,0.55,0,0.83,0l31.51-30.34C81.61,83.33,81.61,82.25,81.55,81.17"/>
	<path class="st0" d="M82.33,83.66l23.71-22.83c-0.34-1.3-0.74-2.59-1.19-3.84L81.78,80.94C82,81.84,82.18,82.74,82.33,83.66"/>
	<path class="st0" d="M81.27,87.32l-25.91,26.91c0.46-0.08,0.92-0.18,1.37-0.28l23.79-22.91C80.84,89.82,81.09,88.57,81.27,87.32"/>
	<path class="st0" d="M82.84,88.8l24.19-23.29c-0.22-1.38-0.5-2.74-0.83-4.08L82.63,85.9C82.74,86.87,82.81,87.83,82.84,88.8"/>
</g>

</svg>
